<svg width="1500" height="500" viewBox="0 0 1500 500" fill="none" xmlns="http://www.w3.org/2000/svg">
<path d="M446.1 300V285.24H483.9C491.1 285.24 496.74 283.14 500.82 278.94C504.9 274.62 506.94 269.46 506.94 263.46C506.94 259.38 506.04 255.72 504.24 252.48C502.44 249.12 499.8 246.48 496.32 244.56C492.96 242.64 489 241.68 484.44 241.68H446.1V226.92H481.92C487.92 226.92 492.66 225.36 496.14 222.24C499.74 219 501.54 214.38 501.54 208.38C501.54 202.38 499.68 197.82 495.96 194.7C492.24 191.46 487.32 189.84 481.2 189.84H446.1V175.08H481.56C489.72 175.08 496.5 176.58 501.9 179.58C507.42 182.46 511.56 186.3 514.32 191.1C517.2 195.9 518.64 201.18 518.64 206.94C518.64 213.66 516.78 219.54 513.06 224.58C509.46 229.62 504.12 233.58 497.04 236.46L498.48 231.06C506.52 233.94 512.76 238.32 517.2 244.2C521.76 249.96 524.04 256.8 524.04 264.72C524.04 271.32 522.42 277.26 519.18 282.54C515.94 287.82 511.26 292.08 505.14 295.32C499.14 298.44 491.76 300 483 300H446.1ZM434.76 300V175.08H451.68V300H434.76ZM544.208 300V214.5H560.408V300H544.208ZM552.308 197.4C549.308 197.4 546.848 196.44 544.928 194.52C543.008 192.48 542.048 189.96 542.048 186.96C542.048 184.08 543.008 181.68 544.928 179.76C546.848 177.72 549.308 176.7 552.308 176.7C555.308 176.7 557.768 177.72 559.688 179.76C561.608 181.68 562.568 184.08 562.568 186.96C562.568 189.96 561.608 192.48 559.688 194.52C557.768 196.44 555.308 197.4 552.308 197.4ZM584.282 300V171.48H600.482V300H584.282ZM624.185 300V171.48H640.385V300H624.185ZM848.233 301.8C841.273 301.8 834.973 300.24 829.333 297.12C823.813 293.88 819.493 289.44 816.373 283.8C813.253 278.16 811.693 271.62 811.693 264.18V214.5H827.893V263.46C827.893 268.14 828.673 272.22 830.233 275.7C831.913 279.06 834.313 281.64 837.433 283.44C840.553 285.24 844.213 286.14 848.413 286.14C854.773 286.14 859.753 284.16 863.353 280.2C866.953 276.12 868.753 270.54 868.753 263.46V214.5H884.953V264.18C884.953 271.62 883.393 278.16 880.273 283.8C877.153 289.44 872.833 293.88 867.313 297.12C861.913 300.24 855.553 301.8 848.233 301.8ZM942.845 301.8C934.925 301.8 927.845 299.88 921.605 296.04C915.365 292.08 910.385 286.74 906.665 280.02C903.065 273.3 901.265 265.74 901.265 257.34C901.265 248.94 903.065 241.38 906.665 234.66C910.385 227.94 915.365 222.6 921.605 218.64C927.845 214.68 934.925 212.7 942.845 212.7C949.205 212.7 954.965 214.08 960.125 216.84C965.285 219.48 969.425 223.2 972.545 228C975.785 232.68 977.585 238.14 977.945 244.38V270.12C977.585 276.24 975.845 281.7 972.725 286.5C969.605 291.3 965.465 295.08 960.305 297.84C955.145 300.48 949.325 301.8 942.845 301.8ZM945.545 286.5C950.945 286.5 955.625 285.24 959.585 282.72C963.665 280.2 966.845 276.78 969.125 272.46C971.405 268.02 972.545 262.98 972.545 257.34C972.545 251.46 971.345 246.36 968.945 242.04C966.665 237.72 963.485 234.3 959.405 231.78C955.445 229.26 950.765 228 945.365 228C939.965 228 935.225 229.26 931.145 231.78C927.065 234.3 923.825 237.78 921.425 242.22C919.145 246.54 918.005 251.52 918.005 257.16C918.005 262.92 919.145 268.02 921.425 272.46C923.825 276.78 927.065 280.2 931.145 282.72C935.345 285.24 940.145 286.5 945.545 286.5ZM987.845 300H971.465V276.96L974.525 256.08L971.465 235.38V171.48H987.845V300ZM1047.61 301.8C1039.69 301.8 1032.61 299.88 1026.37 296.04C1020.13 292.08 1015.15 286.74 1011.43 280.02C1007.83 273.3 1006.03 265.74 1006.03 257.34C1006.03 248.94 1007.83 241.38 1011.43 234.66C1015.15 227.94 1020.13 222.6 1026.37 218.64C1032.61 214.68 1039.69 212.7 1047.61 212.7C1053.97 212.7 1059.73 214.08 1064.89 216.84C1070.05 219.48 1074.19 223.2 1077.31 228C1080.55 232.68 1082.35 238.14 1082.71 244.38V270.12C1082.35 276.24 1080.61 281.7 1077.49 286.5C1074.37 291.3 1070.23 295.08 1065.07 297.84C1059.91 300.48 1054.09 301.8 1047.61 301.8ZM1050.31 286.5C1055.71 286.5 1060.39 285.24 1064.35 282.72C1068.43 280.2 1071.61 276.78 1073.89 272.46C1076.17 268.02 1077.31 262.98 1077.31 257.34C1077.31 251.46 1076.11 246.36 1073.71 242.04C1071.43 237.72 1068.25 234.3 1064.17 231.78C1060.21 229.26 1055.53 228 1050.13 228C1044.73 228 1039.99 229.26 1035.91 231.78C1031.83 234.3 1028.59 237.78 1026.19 242.22C1023.91 246.54 1022.77 251.52 1022.77 257.16C1022.77 262.92 1023.91 268.02 1026.19 272.46C1028.59 276.78 1031.83 280.2 1035.91 282.72C1040.11 285.24 1044.91 286.5 1050.31 286.5ZM1092.61 300H1076.23V276.96L1079.29 256.08L1076.23 235.38V171.48H1092.61V300ZM1144.28 300.72L1107.2 214.5H1125.2L1152.74 282H1146.98L1175.96 214.5H1193.96L1154 300.72H1144.28ZM1119.8 335.82L1145 284.16L1154 300.72L1137.8 335.82H1119.8Z" fill="#0C4CA1"/>
<path d="M763.654 270.291L751.532 276.335C745.453 279.365 738.576 280.406 731.873 279.311C725.17 278.216 718.981 275.041 714.181 270.235" stroke="#1D90F2" stroke-width="4.91667" stroke-linecap="round" stroke-linejoin="round"/>
<path d="M760.345 280.182L763.654 270.291L753.763 266.982" stroke="#1D90F2" stroke-width="4.91667" stroke-linecap="round" stroke-linejoin="round"/>
<ellipse cx="767.5" cy="234" rx="12.5" ry="15" fill="#1D90F2"/>
<circle cx="710.5" cy="236.5" r="12.5" fill="#1D90F2"/>
<path d="M803 246.9L788.24 246.9V209.1C788.24 201.9 786.14 196.26 781.94 192.18C777.62 188.1 772.46 186.06 766.46 186.06C762.38 186.06 758.72 186.96 755.48 188.76C752.12 190.56 749.48 193.2 747.56 196.68C745.64 200.04 744.68 204 744.68 208.56V246.9H729.92V211.08C729.92 205.08 728.36 200.34 725.24 196.86C722 193.26 717.38 191.46 711.38 191.46C705.38 191.46 700.82 193.32 697.7 197.04C694.46 200.76 692.84 205.68 692.84 211.8V246.9L678.08 246.9V211.44C678.08 203.28 679.58 196.5 682.58 191.1C685.46 185.58 689.3 181.44 694.1 178.68C698.9 175.8 704.18 174.36 709.94 174.36C716.66 174.36 722.54 176.22 727.58 179.94C732.62 183.54 736.58 188.88 739.46 195.96L734.06 194.52C736.94 186.48 741.32 180.24 747.2 175.8C752.96 171.24 759.8 168.96 767.72 168.96C774.32 168.96 780.26 170.58 785.54 173.82C790.82 177.06 795.08 181.74 798.32 187.86C801.44 193.86 803 201.24 803 210V246.9ZM803 258.24L678.08 258.24V241.32L803 241.32V258.24Z" fill="#0C4CA1"/>
</svg>
