<svg width="1500" height="500" viewBox="0 0 1500 500" fill="none" xmlns="http://www.w3.org/2000/svg">
<path d="M106.4 355V328.76H173.6C186.4 328.76 196.427 325.027 203.68 317.56C210.933 309.88 214.56 300.707 214.56 290.04C214.56 282.787 212.96 276.28 209.76 270.52C206.56 264.547 201.867 259.853 195.68 256.44C189.707 253.027 182.667 251.32 174.56 251.32H106.4V225.08H170.08C180.747 225.08 189.173 222.307 195.36 216.76C201.76 211 204.96 202.787 204.96 192.12C204.96 181.453 201.653 173.347 195.04 167.8C188.427 162.04 179.68 159.16 168.8 159.16H106.4V132.92H169.44C183.947 132.92 196 135.587 205.6 140.92C215.413 146.04 222.773 152.867 227.68 161.4C232.8 169.933 235.36 179.32 235.36 189.56C235.36 201.507 232.053 211.96 225.44 220.92C219.04 229.88 209.547 236.92 196.96 242.04L199.52 232.44C213.813 237.56 224.907 245.347 232.8 255.8C240.907 266.04 244.96 278.2 244.96 292.28C244.96 304.013 242.08 314.573 236.32 323.96C230.56 333.347 222.24 340.92 211.36 346.68C200.693 352.227 187.573 355 172 355H106.4ZM86.24 355V132.92H116.32V355H86.24ZM280.815 355V203H309.615V355H280.815ZM295.215 172.6C289.882 172.6 285.508 170.893 282.095 167.48C278.682 163.853 276.975 159.373 276.975 154.04C276.975 148.92 278.682 144.653 282.095 141.24C285.508 137.613 289.882 135.8 295.215 135.8C300.548 135.8 304.922 137.613 308.335 141.24C311.748 144.653 313.455 148.92 313.455 154.04C313.455 159.373 311.748 163.853 308.335 167.48C304.922 170.893 300.548 172.6 295.215 172.6ZM352.057 355V126.52H380.858V355H352.057ZM422.995 355V126.52H451.795V355H422.995ZM821.302 358.2C808.929 358.2 797.729 355.427 787.703 349.88C777.889 344.12 770.209 336.227 764.663 326.2C759.116 316.173 756.343 304.547 756.343 291.32V203H785.143V290.04C785.143 298.36 786.529 305.613 789.303 311.8C792.289 317.773 796.556 322.36 802.103 325.56C807.649 328.76 814.156 330.36 821.623 330.36C832.929 330.36 841.783 326.84 848.183 319.8C854.583 312.547 857.783 302.627 857.783 290.04V203H886.583V291.32C886.583 304.547 883.809 316.173 878.263 326.2C872.716 336.227 865.036 344.12 855.223 349.88C845.623 355.427 834.316 358.2 821.302 358.2ZM989.503 358.2C975.423 358.2 962.836 354.787 951.743 347.96C940.649 340.92 931.796 331.427 925.182 319.48C918.783 307.533 915.583 294.093 915.583 279.16C915.583 264.227 918.783 250.787 925.182 238.84C931.796 226.893 940.649 217.4 951.743 210.36C962.836 203.32 975.423 199.8 989.503 199.8C1000.81 199.8 1011.05 202.253 1020.22 207.16C1029.4 211.853 1036.76 218.467 1042.3 227C1048.06 235.32 1051.26 245.027 1051.9 256.12V301.88C1051.26 312.76 1048.17 322.467 1042.62 331C1037.08 339.533 1029.72 346.253 1020.54 351.16C1011.37 355.853 1001.02 358.2 989.503 358.2ZM994.303 331C1003.9 331 1012.22 328.76 1019.26 324.28C1026.52 319.8 1032.17 313.72 1036.22 306.04C1040.28 298.147 1042.3 289.187 1042.3 279.16C1042.3 268.707 1040.17 259.64 1035.9 251.96C1031.85 244.28 1026.2 238.2 1018.94 233.72C1011.9 229.24 1003.58 227 993.983 227C984.383 227 975.956 229.24 968.703 233.72C961.449 238.2 955.689 244.387 951.423 252.28C947.369 259.96 945.343 268.813 945.343 278.84C945.343 289.08 947.369 298.147 951.423 306.04C955.689 313.72 961.449 319.8 968.703 324.28C976.169 328.76 984.703 331 994.303 331ZM1069.5 355H1040.38V314.04L1045.82 276.92L1040.38 240.12V126.52H1069.5V355ZM1175.75 358.2C1161.67 358.2 1149.09 354.787 1137.99 347.96C1126.9 340.92 1118.05 331.427 1111.43 319.48C1105.03 307.533 1101.83 294.093 1101.83 279.16C1101.83 264.227 1105.03 250.787 1111.43 238.84C1118.05 226.893 1126.9 217.4 1137.99 210.36C1149.09 203.32 1161.67 199.8 1175.75 199.8C1187.06 199.8 1197.3 202.253 1206.47 207.16C1215.65 211.853 1223.01 218.467 1228.55 227C1234.31 235.32 1237.51 245.027 1238.15 256.12V301.88C1237.51 312.76 1234.42 322.467 1228.87 331C1223.33 339.533 1215.97 346.253 1206.79 351.16C1197.62 355.853 1187.27 358.2 1175.75 358.2ZM1180.55 331C1190.15 331 1198.47 328.76 1205.51 324.28C1212.77 319.8 1218.42 313.72 1222.47 306.04C1226.53 298.147 1228.55 289.187 1228.55 279.16C1228.55 268.707 1226.42 259.64 1222.15 251.96C1218.1 244.28 1212.45 238.2 1205.19 233.72C1198.15 229.24 1189.83 227 1180.23 227C1170.63 227 1162.21 229.24 1154.95 233.72C1147.7 238.2 1141.94 244.387 1137.67 252.28C1133.62 259.96 1131.59 268.813 1131.59 278.84C1131.59 289.08 1133.62 298.147 1137.67 306.04C1141.94 313.72 1147.7 319.8 1154.95 324.28C1162.42 328.76 1170.95 331 1180.55 331ZM1255.75 355H1226.63V314.04L1232.07 276.92L1226.63 240.12V126.52H1255.75V355ZM1347.6 356.28L1281.68 203H1313.68L1362.64 323H1352.4L1403.92 203H1435.92L1364.88 356.28H1347.6ZM1304.08 418.68L1348.88 326.84L1364.88 356.28L1336.08 418.68H1304.08Z" fill="#0C4CA1"/>
<path d="M667.433 294.813L642.778 307.106C630.414 313.267 616.426 315.385 602.793 313.158C589.159 310.931 576.571 304.474 566.81 294.699" stroke="#1D4ED8" stroke-width="4.91667" stroke-linecap="round" stroke-linejoin="round"/>
<path d="M660.702 314.93L667.433 294.813L647.316 288.082" stroke="#1D4ED8" stroke-width="4.91667" stroke-linecap="round" stroke-linejoin="round"/>
<ellipse cx="681" cy="222" rx="30" ry="40" fill="#1D4ED8"/>
<circle cx="571" cy="230" r="30" fill="#1D4ED8"/>
<path d="M750 250.25H721.3V176.75C721.3 162.75 717.217 151.783 709.05 143.85C700.65 135.917 690.617 131.95 678.95 131.95C671.017 131.95 663.9 133.7 657.6 137.2C651.067 140.7 645.933 145.833 642.2 152.6C638.467 159.133 636.6 166.833 636.6 175.7V250.25H607.9V180.6C607.9 168.933 604.867 159.717 598.8 152.95C592.5 145.95 583.517 142.45 571.85 142.45C560.183 142.45 551.317 146.067 545.25 153.3C538.95 160.533 535.8 170.1 535.8 182V250.25H507.1V181.3C507.1 165.433 510.017 152.25 515.85 141.75C521.45 131.017 528.917 122.967 538.25 117.6C547.583 112 557.85 109.2 569.05 109.2C582.117 109.2 593.55 112.817 603.35 120.05C613.15 127.05 620.85 137.433 626.45 151.2L615.95 148.4C621.55 132.767 630.067 120.633 641.5 112C652.7 103.133 666 98.7 681.4 98.7C694.233 98.7 705.783 101.85 716.05 108.15C726.317 114.45 734.6 123.55 740.9 135.45C746.967 147.117 750 161.467 750 178.5V250.25ZM750 272.3L507.1 272.3V239.4L750 239.4V272.3Z" fill="#0C4CA1"/>
</svg>
